<?xml version="1.0" encoding="utf-8"?>
<!-- Generator: Adobe Illustrator 27.0.0, SVG Export Plug-In . SVG Version: 6.00 Build 0)  -->
<svg version="1.1" id="Layer_1" xmlns="http://www.w3.org/2000/svg" xmlns:xlink="http://www.w3.org/1999/xlink" x="0px" y="0px"
	 viewBox="0 0 50 50" style="enable-background:new 0 0 50 50;" xml:space="preserve">
<style type="text/css">
	.st0{fill:#D85111;}
	.st1{fill:#FFFFFF;}
</style>
<circle cx="25" cy="25" r="25"/>
<g>
	<path class="st0" d="M28.74,14.35c-0.85-0.48-1.83-0.78-2.86-0.78h-5.71c1.58,0,2.86,1.28,2.86,2.86v5.71V25h2.86
		c1.05,0,2.01-0.27,2.86-0.78c0.64-0.37,1.19-0.85,1.62-1.42c0.78-0.98,1.23-2.19,1.23-3.54C31.59,17.18,30.45,15.33,28.74,14.35z"
		/>
	<path class="st1" d="M30.37,22.83c-0.46,0.57-1.01,1.05-1.62,1.42c-0.85,0.48-1.83,0.78-2.86,0.78h-2.86v-2.88v-5.71
		c0-1.58-1.28-2.86-2.86-2.86c-1.58,0-2.86,1.28-2.86,2.86v5.71V25v8.57v2.86h2.86h7.13c0.5,0,0.96-0.05,1.42-0.14
		c3.27-0.66,5.71-3.54,5.71-6.99C34.46,26.44,32.79,23.97,30.37,22.83z"/>
</g>
</svg>
