<svg width="158" height="158" viewBox="0 0 158 158" fill="none" xmlns="http://www.w3.org/2000/svg">
  <g clip-path="url(#clip0_9382_684)">
    <mask id="mask0_9382_684" style="mask-type:luminance" maskUnits="userSpaceOnUse" x="64" y="65" width="30" height="29">
      <path d="M93.971 65H64V93.4129H93.971V65Z" fill="white"/>
    </mask>
    <g mask="url(#mask0_9382_684)">
      <path d="M88.6565 79.3658C88.6739 81.1642 88.4676 82.9578 88.042 84.7053C87.6846 86.1974 87.0609 87.6128 86.2009 88.8835C85.4266 90.0211 84.3913 90.9567 83.1815 91.6125C82.2787 92.0904 81.2936 92.3933 80.2783 92.5053C77.5469 90.0037 78.7033 82.9972 81.592 82.6609C80.3364 86.094 81.9477 88.2061 83.3098 88.3271C86.1598 88.5835 88.8017 83.7859 88.6154 77.9238C88.6444 78.398 88.6565 78.8771 88.6565 79.3658Z" fill="black"/>
      <path d="M90.2736 88.925C87.3486 92.1427 83.0566 94.0613 80.9953 93.0113C80.729 92.8777 80.4843 92.705 80.2695 92.4984C81.2849 92.3864 82.2699 92.0835 83.1728 91.6056C84.3852 90.9531 85.4238 90.02 86.2018 88.8839C87.0618 87.6132 87.6855 86.1978 88.0429 84.7056C88.4685 82.9582 88.6749 81.1646 88.6574 79.3661C88.6574 78.8823 88.6574 78.3984 88.6163 77.9145V77.8976C88.5875 76.9802 88.4898 76.0663 88.3236 75.1637C87.576 71.0605 85.2703 66.2363 83.1123 65C83.6283 65.136 84.1343 65.3073 84.6268 65.5129C84.6497 65.5143 84.6717 65.5227 84.6897 65.5371C88.459 67.1273 91.446 70.1446 92.9978 73.9298C94.9671 78.8073 93.8953 84.9573 90.2736 88.925Z" fill="black"/>
      <path d="M76.377 75.7475C77.6326 72.3217 76.0238 70.212 74.6592 70.0814C71.906 69.8395 69.3367 74.308 69.3367 79.8919C69.3367 79.7153 69.3367 79.5411 69.3367 79.3596C69.3219 77.5397 69.5332 75.725 69.9657 73.9572C70.3298 72.4332 70.9596 70.9852 71.8262 69.6798C72.6029 68.5205 73.6382 67.5573 74.8504 66.8661C75.7427 66.3736 76.7221 66.0589 77.7342 65.9395C80.4173 68.4628 79.256 75.4161 76.377 75.7475Z" fill="black"/>
      <path d="M74.8673 93.4121C74.5141 93.3129 74.1633 93.2089 73.827 93.0928L73.735 93.0565C73.6673 93.0347 73.5947 93.0057 73.5221 92.9766C73.4496 92.9476 73.3818 92.9161 73.3068 92.8871C69.5339 91.2915 66.5425 88.2722 64.9818 84.4847C63.4794 80.7831 63.7334 76.3532 65.5237 72.6976C65.5915 72.5524 65.6641 72.4121 65.7366 72.2742C65.8891 71.9936 66.0463 71.7129 66.2205 71.4444C66.5412 70.9423 66.8885 70.4577 67.2608 69.9927C67.3866 69.8427 67.5028 69.6903 67.6504 69.5379C67.6643 69.5198 67.6797 69.5028 67.6963 69.4871L67.7616 69.4097C70.6939 66.2403 74.935 64.3581 76.9746 65.396C77.2524 65.5393 77.5083 65.7218 77.7342 65.9379C76.722 66.0574 75.7427 66.3721 74.8504 66.8645C73.6356 67.5572 72.5986 68.523 71.8213 69.6855C70.9547 70.991 70.3249 72.4389 69.9608 73.9629C69.5251 75.7303 69.3105 77.545 69.3221 79.3653C69.3221 79.5468 69.3221 79.721 69.3221 79.8976C69.3221 80.0742 69.3221 80.2121 69.3342 80.3815C69.3463 80.9795 69.3915 81.5764 69.4697 82.1694C69.4866 82.3629 69.5157 82.5492 69.5471 82.7403C69.5786 82.9315 69.5979 83.0742 69.627 83.2436C69.6391 83.3186 69.656 83.3936 69.6729 83.471C69.7455 83.8944 69.8423 84.3081 69.9415 84.7169C70.0407 85.1258 70.1616 85.5105 70.2923 85.8879C70.3015 85.9277 70.3145 85.9666 70.331 86.004C71.3979 89.2919 73.1786 92.4444 74.8673 93.4121Z" fill="black"/>
    </g>
  </g>
  <path d="M47.2665 0.421875H43.0078V4.68057H47.2665V0.421875Z" fill="black"/>
  <path d="M55.7841 0.421875H51.5254V4.68057H55.7841V0.421875Z" fill="black"/>
  <path d="M60.0438 0.421875H55.7852V4.68057H60.0438V0.421875Z" fill="black"/>
  <path d="M64.3017 0.421875H60.043V4.68057H64.3017V0.421875Z" fill="black"/>
  <path d="M68.5614 0.421875H64.3027V4.68057H68.5614V0.421875Z" fill="black"/>
  <path d="M72.8192 0.421875H68.5605V4.68057H72.8192V0.421875Z" fill="black"/>
  <path d="M89.8544 0.421875H85.5957V4.68057H89.8544V0.421875Z" fill="black"/>
  <path d="M94.1122 0.421875H89.8535V4.68057H94.1122V0.421875Z" fill="black"/>
  <path d="M102.63 0.421875H98.3711V4.68057H102.63V0.421875Z" fill="black"/>
  <path d="M106.89 0.421875H102.631V4.68057H106.89V0.421875Z" fill="black"/>
  <path d="M111.147 0.421875H106.889V4.68057H111.147V0.421875Z" fill="black"/>
  <path d="M115.407 0.421875H111.148V4.68057H115.407V0.421875Z" fill="black"/>
  <path d="M123.925 0.421875H119.666V4.68057H123.925V0.421875Z" fill="black"/>
  <path d="M38.7509 4.67969H34.4922V8.93838H38.7509V4.67969Z" fill="black"/>
  <path d="M43.0087 4.67969H38.75V8.93838H43.0087V4.67969Z" fill="black"/>
  <path d="M47.2665 4.67969H43.0078V8.93838H47.2665V4.67969Z" fill="black"/>
  <path d="M102.63 4.67969H98.3711V8.93838H102.63V4.67969Z" fill="black"/>
  <path d="M115.407 4.67969H111.148V8.93838H115.407V4.67969Z" fill="black"/>
  <path d="M38.7509 8.93945H34.4922V13.1981H38.7509V8.93945Z" fill="black"/>
  <path d="M43.0087 8.93945H38.75V13.1981H43.0087V8.93945Z" fill="black"/>
  <path d="M55.7841 8.93945H51.5254V13.1981H55.7841V8.93945Z" fill="black"/>
  <path d="M60.0438 8.93945H55.7852V13.1981H60.0438V8.93945Z" fill="black"/>
  <path d="M68.5614 8.93945H64.3027V13.1981H68.5614V8.93945Z" fill="black"/>
  <path d="M72.8192 8.93945H68.5605V13.1981H72.8192V8.93945Z" fill="black"/>
  <path d="M85.5966 8.93945H81.3379V13.1981H85.5966V8.93945Z" fill="black"/>
  <path d="M94.1122 8.93945H89.8535V13.1981H94.1122V8.93945Z" fill="black"/>
  <path d="M98.372 8.93945H94.1133V13.1981H98.372V8.93945Z" fill="black"/>
  <path d="M106.89 8.93945H102.631V13.1981H106.89V8.93945Z" fill="black"/>
  <path d="M111.147 8.93945H106.889V13.1981H111.147V8.93945Z" fill="black"/>
  <path d="M115.407 8.93945H111.148V13.1981H115.407V8.93945Z" fill="black"/>
  <path d="M123.925 8.93945H119.666V13.1981H123.925V8.93945Z" fill="black"/>
  <path d="M38.7509 13.1973H34.4922V17.456H38.7509V13.1973Z" fill="black"/>
  <path d="M43.0087 13.1973H38.75V17.456H43.0087V13.1973Z" fill="black"/>
  <path d="M47.2665 13.1973H43.0078V17.456H47.2665V13.1973Z" fill="black"/>
  <path d="M55.7841 13.1973H51.5254V17.456H55.7841V13.1973Z" fill="black"/>
  <path d="M60.0438 13.1973H55.7852V17.456H60.0438V13.1973Z" fill="black"/>
  <path d="M64.3017 13.1973H60.043V17.456H64.3017V13.1973Z" fill="black"/>
  <path d="M81.3368 13.1973H77.0781V17.456H81.3368V13.1973Z" fill="black"/>
  <path d="M89.8544 13.1973H85.5957V17.456H89.8544V13.1973Z" fill="black"/>
  <path d="M102.63 13.1973H98.3711V17.456H102.63V13.1973Z" fill="black"/>
  <path d="M111.147 13.1973H106.889V17.456H111.147V13.1973Z" fill="black"/>
  <path d="M115.407 13.1973H111.148V17.456H115.407V13.1973Z" fill="black"/>
  <path d="M38.7509 17.457H34.4922V21.7157H38.7509V17.457Z" fill="black"/>
  <path d="M47.2665 17.457H43.0078V21.7157H47.2665V17.457Z" fill="black"/>
  <path d="M51.5263 17.457H47.2676V21.7157H51.5263V17.457Z" fill="black"/>
  <path d="M68.5614 17.457H64.3027V21.7157H68.5614V17.457Z" fill="black"/>
  <path d="M72.8192 17.457H68.5605V21.7157H72.8192V17.457Z" fill="black"/>
  <path d="M77.079 17.457H72.8203V21.7157H77.079V17.457Z" fill="black"/>
  <path d="M81.3368 17.457H77.0781V21.7157H81.3368V17.457Z" fill="black"/>
  <path d="M111.147 17.457H106.889V21.7157H111.147V17.457Z" fill="black"/>
  <path d="M115.407 17.457H111.148V21.7157H115.407V17.457Z" fill="black"/>
  <path d="M123.925 17.457H119.666V21.7157H123.925V17.457Z" fill="black"/>
  <path d="M38.7509 21.7148H34.4922V25.9735H38.7509V21.7148Z" fill="black"/>
  <path d="M43.0087 21.7148H38.75V25.9735H43.0087V21.7148Z" fill="black"/>
  <path d="M51.5263 21.7148H47.2676V25.9735H51.5263V21.7148Z" fill="black"/>
  <path d="M55.7841 21.7148H51.5254V25.9735H55.7841V21.7148Z" fill="black"/>
  <path d="M68.5614 21.7148H64.3027V25.9735H68.5614V21.7148Z" fill="black"/>
  <path d="M72.8192 21.7148H68.5605V25.9735H72.8192V21.7148Z" fill="black"/>
  <path d="M94.1122 21.7148H89.8535V25.9735H94.1122V21.7148Z" fill="black"/>
  <path d="M106.89 21.7148H102.631V25.9735H106.89V21.7148Z" fill="black"/>
  <path d="M123.925 21.7148H119.666V25.9735H123.925V21.7148Z" fill="black"/>
  <path d="M38.7509 25.9746H34.4922V30.2333H38.7509V25.9746Z" fill="black"/>
  <path d="M47.2665 25.9746H43.0078V30.2333H47.2665V25.9746Z" fill="black"/>
  <path d="M55.7841 25.9746H51.5254V30.2333H55.7841V25.9746Z" fill="black"/>
  <path d="M64.3017 25.9746H60.043V30.2333H64.3017V25.9746Z" fill="black"/>
  <path d="M72.8192 25.9746H68.5605V30.2333H72.8192V25.9746Z" fill="black"/>
  <path d="M81.3368 25.9746H77.0781V30.2333H81.3368V25.9746Z" fill="black"/>
  <path d="M89.8544 25.9746H85.5957V30.2333H89.8544V25.9746Z" fill="black"/>
  <path d="M98.372 25.9746H94.1133V30.2333H98.372V25.9746Z" fill="black"/>
  <path d="M106.89 25.9746H102.631V30.2333H106.89V25.9746Z" fill="black"/>
  <path d="M115.407 25.9746H111.148V30.2333H115.407V25.9746Z" fill="black"/>
  <path d="M123.925 25.9746H119.666V30.2333H123.925V25.9746Z" fill="black"/>
  <path d="M51.5263 30.2324H47.2676V34.4911H51.5263V30.2324Z" fill="black"/>
  <path d="M60.0438 30.2324H55.7852V34.4911H60.0438V30.2324Z" fill="black"/>
  <path d="M64.3017 30.2324H60.043V34.4911H64.3017V30.2324Z" fill="black"/>
  <path d="M72.8192 30.2324H68.5605V34.4911H72.8192V30.2324Z" fill="black"/>
  <path d="M81.3368 30.2324H77.0781V34.4911H81.3368V30.2324Z" fill="black"/>
  <path d="M89.8544 30.2324H85.5957V34.4911H89.8544V30.2324Z" fill="black"/>
  <path d="M98.372 30.2324H94.1133V34.4911H98.372V30.2324Z" fill="black"/>
  <path d="M102.63 30.2324H98.3711V34.4911H102.63V30.2324Z" fill="black"/>
  <path d="M106.89 30.2324H102.631V34.4911H106.89V30.2324Z" fill="black"/>
  <path d="M119.665 30.2324H115.406V34.4911H119.665V30.2324Z" fill="black"/>
  <path d="M123.925 30.2324H119.666V34.4911H123.925V30.2324Z" fill="black"/>
  <path d="M13.1981 34.4922H8.93945V38.7509H13.1981V34.4922Z" fill="black"/>
  <path d="M25.9735 34.4922H21.7148V38.7509H25.9735V34.4922Z" fill="black"/>
  <path d="M30.2333 34.4922H25.9746V38.7509H30.2333V34.4922Z" fill="black"/>
  <path d="M34.4911 34.4922H30.2324V38.7509H34.4911V34.4922Z" fill="black"/>
  <path d="M38.7509 34.4922H34.4922V38.7509H38.7509V34.4922Z" fill="black"/>
  <path d="M55.7841 34.4922H51.5254V38.7509H55.7841V34.4922Z" fill="black"/>
  <path d="M60.0438 34.4922H55.7852V38.7509H60.0438V34.4922Z" fill="black"/>
  <path d="M64.3017 34.4922H60.043V38.7509H64.3017V34.4922Z" fill="black"/>
  <path d="M68.5614 34.4922H64.3027V38.7509H68.5614V34.4922Z" fill="black"/>
  <path d="M72.8192 34.4922H68.5605V38.7509H72.8192V34.4922Z" fill="black"/>
  <path d="M85.5966 34.4922H81.3379V38.7509H85.5966V34.4922Z" fill="black"/>
  <path d="M94.1122 34.4922H89.8535V38.7509H94.1122V34.4922Z" fill="black"/>
  <path d="M102.63 34.4922H98.3711V38.7509H102.63V34.4922Z" fill="black"/>
  <path d="M106.89 34.4922H102.631V38.7509H106.89V34.4922Z" fill="black"/>
  <path d="M128.183 34.4922H123.924V38.7509H128.183V34.4922Z" fill="black"/>
  <path d="M136.7 34.4922H132.441V38.7509H136.7V34.4922Z" fill="black"/>
  <path d="M140.958 34.4922H136.699V38.7509H140.958V34.4922Z" fill="black"/>
  <path d="M145.218 34.4922H140.959V38.7509H145.218V34.4922Z" fill="black"/>
  <path d="M149.475 34.4922H145.217V38.7509H149.475V34.4922Z" fill="black"/>
  <path d="M153.735 34.4922H149.477V38.7509H153.735V34.4922Z" fill="black"/>
  <path d="M21.7157 38.75H17.457V43.0087H21.7157V38.75Z" fill="black"/>
  <path d="M25.9735 38.75H21.7148V43.0087H25.9735V38.75Z" fill="black"/>
  <path d="M34.4911 38.75H30.2324V43.0087H34.4911V38.75Z" fill="black"/>
  <path d="M43.0087 38.75H38.75V43.0087H43.0087V38.75Z" fill="black"/>
  <path d="M47.2665 38.75H43.0078V43.0087H47.2665V38.75Z" fill="black"/>
  <path d="M60.0438 38.75H55.7852V43.0087H60.0438V38.75Z" fill="black"/>
  <path d="M64.3017 38.75H60.043V43.0087H64.3017V38.75Z" fill="black"/>
  <path d="M72.8192 38.75H68.5605V43.0087H72.8192V38.75Z" fill="black"/>
  <path d="M106.89 38.75H102.631V43.0087H106.89V38.75Z" fill="black"/>
  <path d="M111.147 38.75H106.889V43.0087H111.147V38.75Z" fill="black"/>
  <path d="M119.665 38.75H115.406V43.0087H119.665V38.75Z" fill="black"/>
  <path d="M123.925 38.75H119.666V43.0087H123.925V38.75Z" fill="black"/>
  <path d="M128.183 38.75H123.924V43.0087H128.183V38.75Z" fill="black"/>
  <path d="M132.44 38.75H128.182V43.0087H132.44V38.75Z" fill="black"/>
  <path d="M136.7 38.75H132.441V43.0087H136.7V38.75Z" fill="black"/>
  <path d="M157.993 38.75H153.734V43.0087H157.993V38.75Z" fill="black"/>
  <path d="M8.93838 43.0078H4.67969V47.2665H8.93838V43.0078Z" fill="black"/>
  <path d="M21.7157 43.0078H17.457V47.2665H21.7157V43.0078Z" fill="black"/>
  <path d="M30.2333 43.0078H25.9746V47.2665H30.2333V43.0078Z" fill="black"/>
  <path d="M43.0087 43.0078H38.75V47.2665H43.0087V43.0078Z" fill="black"/>
  <path d="M51.5263 43.0078H47.2676V47.2665H51.5263V43.0078Z" fill="black"/>
  <path d="M72.8192 43.0078H68.5605V47.2665H72.8192V43.0078Z" fill="black"/>
  <path d="M81.3368 43.0078H77.0781V47.2665H81.3368V43.0078Z" fill="black"/>
  <path d="M119.665 43.0078H115.406V47.2665H119.665V43.0078Z" fill="black"/>
  <path d="M128.183 43.0078H123.924V47.2665H128.183V43.0078Z" fill="black"/>
  <path d="M132.44 43.0078H128.182V47.2665H132.44V43.0078Z" fill="black"/>
  <path d="M140.958 43.0078H136.699V47.2665H140.958V43.0078Z" fill="black"/>
  <path d="M145.218 43.0078H140.959V47.2665H145.218V43.0078Z" fill="black"/>
  <path d="M157.993 43.0078H153.734V47.2665H157.993V43.0078Z" fill="black"/>
  <path d="M8.93838 47.2676H4.67969V51.5263H8.93838V47.2676Z" fill="black"/>
  <path d="M21.7157 47.2676H17.457V51.5263H21.7157V47.2676Z" fill="black"/>
  <path d="M34.4911 47.2676H30.2324V51.5263H34.4911V47.2676Z" fill="black"/>
  <path d="M38.7509 47.2676H34.4922V51.5263H38.7509V47.2676Z" fill="black"/>
  <path d="M43.0087 47.2676H38.75V51.5263H43.0087V47.2676Z" fill="black"/>
  <path d="M55.7841 47.2676H51.5254V51.5263H55.7841V47.2676Z" fill="black"/>
  <path d="M60.0438 47.2676H55.7852V51.5263H60.0438V47.2676Z" fill="black"/>
  <path d="M64.3017 47.2676H60.043V51.5263H64.3017V47.2676Z" fill="black"/>
  <path d="M68.5614 47.2676H64.3027V51.5263H68.5614V47.2676Z" fill="black"/>
  <path d="M72.8192 47.2676H68.5605V51.5263H72.8192V47.2676Z" fill="black"/>
  <path d="M77.079 47.2676H72.8203V51.5263H77.079V47.2676Z" fill="black"/>
  <path d="M89.8544 47.2676H85.5957V51.5263H89.8544V47.2676Z" fill="black"/>
  <path d="M98.372 47.2676H94.1133V51.5263H98.372V47.2676Z" fill="black"/>
  <path d="M106.89 47.2676H102.631V51.5263H106.89V47.2676Z" fill="black"/>
  <path d="M115.407 47.2676H111.148V51.5263H115.407V47.2676Z" fill="black"/>
  <path d="M136.7 47.2676H132.441V51.5263H136.7V47.2676Z" fill="black"/>
  <path d="M145.218 47.2676H140.959V51.5263H145.218V47.2676Z" fill="black"/>
  <path d="M157.993 47.2676H153.734V51.5263H157.993V47.2676Z" fill="black"/>
  <path d="M17.456 51.5254H13.1973V55.7841H17.456V51.5254Z" fill="black"/>
  <path d="M25.9735 51.5254H21.7148V55.7841H25.9735V51.5254Z" fill="black"/>
  <path d="M30.2333 51.5254H25.9746V55.7841H30.2333V51.5254Z" fill="black"/>
  <path d="M47.2665 51.5254H43.0078V55.7841H47.2665V51.5254Z" fill="black"/>
  <path d="M72.8192 51.5254H68.5605V55.7841H72.8192V51.5254Z" fill="black"/>
  <path d="M77.079 51.5254H72.8203V55.7841H77.079V51.5254Z" fill="black"/>
  <path d="M81.3368 51.5254H77.0781V55.7841H81.3368V51.5254Z" fill="black"/>
  <path d="M85.5966 51.5254H81.3379V55.7841H85.5966V51.5254Z" fill="black"/>
  <path d="M98.372 51.5254H94.1133V55.7841H98.372V51.5254Z" fill="black"/>
  <path d="M102.63 51.5254H98.3711V55.7841H102.63V51.5254Z" fill="black"/>
  <path d="M106.89 51.5254H102.631V55.7841H106.89V51.5254Z" fill="black"/>
  <path d="M119.665 51.5254H115.406V55.7841H119.665V51.5254Z" fill="black"/>
  <path d="M123.925 51.5254H119.666V55.7841H123.925V51.5254Z" fill="black"/>
  <path d="M132.44 51.5254H128.182V55.7841H132.44V51.5254Z" fill="black"/>
  <path d="M145.218 51.5254H140.959V55.7841H145.218V51.5254Z" fill="black"/>
  <path d="M153.735 51.5254H149.477V55.7841H153.735V51.5254Z" fill="black"/>
  <path d="M157.993 51.5254H153.734V55.7841H157.993V51.5254Z" fill="black"/>
  <path d="M4.68057 55.7852H0.421875V60.0438H4.68057V55.7852Z" fill="black"/>
  <path d="M13.1981 55.7852H8.93945V60.0438H13.1981V55.7852Z" fill="black"/>
  <path d="M17.456 55.7852H13.1973V60.0438H17.456V55.7852Z" fill="black"/>
  <path d="M51.5263 55.7852H47.2676V60.0438H51.5263V55.7852Z" fill="black"/>
  <path d="M106.89 55.7852H102.631V60.0438H106.89V55.7852Z" fill="black"/>
  <path d="M111.147 55.7852H106.889V60.0438H111.147V55.7852Z" fill="black"/>
  <path d="M119.665 55.7852H115.406V60.0438H119.665V55.7852Z" fill="black"/>
  <path d="M123.925 55.7852H119.666V60.0438H123.925V55.7852Z" fill="black"/>
  <path d="M128.183 55.7852H123.924V60.0438H128.183V55.7852Z" fill="black"/>
  <path d="M132.44 55.7852H128.182V60.0438H132.44V55.7852Z" fill="black"/>
  <path d="M136.7 55.7852H132.441V60.0438H136.7V55.7852Z" fill="black"/>
  <path d="M149.475 55.7852H145.217V60.0438H149.475V55.7852Z" fill="black"/>
  <path d="M157.993 55.7852H153.734V60.0438H157.993V55.7852Z" fill="black"/>
  <path d="M4.68057 60.043H0.421875V64.3017H4.68057V60.043Z" fill="black"/>
  <path d="M17.456 60.043H13.1973V64.3017H17.456V60.043Z" fill="black"/>
  <path d="M21.7157 60.043H17.457V64.3017H21.7157V60.043Z" fill="black"/>
  <path d="M25.9735 60.043H21.7148V64.3017H25.9735V60.043Z" fill="black"/>
  <path d="M30.2333 60.043H25.9746V64.3017H30.2333V60.043Z" fill="black"/>
  <path d="M34.4911 60.043H30.2324V64.3017H34.4911V60.043Z" fill="black"/>
  <path d="M43.0087 60.043H38.75V64.3017H43.0087V60.043Z" fill="black"/>
  <path d="M51.5263 60.043H47.2676V64.3017H51.5263V60.043Z" fill="black"/>
  <path d="M106.89 60.043H102.631V64.3017H106.89V60.043Z" fill="black"/>
  <path d="M119.665 60.043H115.406V64.3017H119.665V60.043Z" fill="black"/>
  <path d="M128.183 60.043H123.924V64.3017H128.183V60.043Z" fill="black"/>
  <path d="M140.958 60.043H136.699V64.3017H140.958V60.043Z" fill="black"/>
  <path d="M145.218 60.043H140.959V64.3017H145.218V60.043Z" fill="black"/>
  <path d="M149.475 60.043H145.217V64.3017H149.475V60.043Z" fill="black"/>
  <path d="M157.993 60.043H153.734V64.3017H157.993V60.043Z" fill="black"/>
  <path d="M13.1981 64.3027H8.93945V68.5614H13.1981V64.3027Z" fill="black"/>
  <path d="M25.9735 64.3027H21.7148V68.5614H25.9735V64.3027Z" fill="black"/>
  <path d="M43.0087 64.3027H38.75V68.5614H43.0087V64.3027Z" fill="black"/>
  <path d="M47.2665 64.3027H43.0078V68.5614H47.2665V64.3027Z" fill="black"/>
  <path d="M115.407 64.3027H111.148V68.5614H115.407V64.3027Z" fill="black"/>
  <path d="M119.665 64.3027H115.406V68.5614H119.665V64.3027Z" fill="black"/>
  <path d="M136.7 64.3027H132.441V68.5614H136.7V64.3027Z" fill="black"/>
  <path d="M145.218 64.3027H140.959V68.5614H145.218V64.3027Z" fill="black"/>
  <path d="M157.993 64.3027H153.734V68.5614H157.993V64.3027Z" fill="black"/>
  <path d="M13.1981 68.5605H8.93945V72.8192H13.1981V68.5605Z" fill="black"/>
  <path d="M17.456 68.5605H13.1973V72.8192H17.456V68.5605Z" fill="black"/>
  <path d="M30.2333 68.5605H25.9746V72.8192H30.2333V68.5605Z" fill="black"/>
  <path d="M34.4911 68.5605H30.2324V72.8192H34.4911V68.5605Z" fill="black"/>
  <path d="M47.2665 68.5605H43.0078V72.8192H47.2665V68.5605Z" fill="black"/>
  <path d="M51.5263 68.5605H47.2676V72.8192H51.5263V68.5605Z" fill="black"/>
  <path d="M106.89 68.5605H102.631V72.8192H106.89V68.5605Z" fill="black"/>
  <path d="M119.665 68.5605H115.406V72.8192H119.665V68.5605Z" fill="black"/>
  <path d="M128.183 68.5605H123.924V72.8192H128.183V68.5605Z" fill="black"/>
  <path d="M132.44 68.5605H128.182V72.8192H132.44V68.5605Z" fill="black"/>
  <path d="M153.735 68.5605H149.477V72.8192H153.735V68.5605Z" fill="black"/>
  <path d="M157.993 68.5605H153.734V72.8192H157.993V68.5605Z" fill="black"/>
  <path d="M21.7157 72.8203H17.457V77.079H21.7157V72.8203Z" fill="black"/>
  <path d="M25.9735 72.8203H21.7148V77.079H25.9735V72.8203Z" fill="black"/>
  <path d="M38.7509 72.8203H34.4922V77.079H38.7509V72.8203Z" fill="black"/>
  <path d="M43.0087 72.8203H38.75V77.079H43.0087V72.8203Z" fill="black"/>
  <path d="M47.2665 72.8203H43.0078V77.079H47.2665V72.8203Z" fill="black"/>
  <path d="M55.7841 72.8203H51.5254V77.079H55.7841V72.8203Z" fill="black"/>
  <path d="M106.89 72.8203H102.631V77.079H106.89V72.8203Z" fill="black"/>
  <path d="M111.147 72.8203H106.889V77.079H111.147V72.8203Z" fill="black"/>
  <path d="M119.665 72.8203H115.406V77.079H119.665V72.8203Z" fill="black"/>
  <path d="M123.925 72.8203H119.666V77.079H123.925V72.8203Z" fill="black"/>
  <path d="M132.44 72.8203H128.182V77.079H132.44V72.8203Z" fill="black"/>
  <path d="M136.7 72.8203H132.441V77.079H136.7V72.8203Z" fill="black"/>
  <path d="M149.475 72.8203H145.217V77.079H149.475V72.8203Z" fill="black"/>
  <path d="M157.993 72.8203H153.734V77.079H157.993V72.8203Z" fill="black"/>
  <path d="M4.68057 77.0781H0.421875V81.3368H4.68057V77.0781Z" fill="black"/>
  <path d="M8.93838 77.0781H4.67969V81.3368H8.93838V77.0781Z" fill="black"/>
  <path d="M25.9735 77.0781H21.7148V81.3368H25.9735V77.0781Z" fill="black"/>
  <path d="M30.2333 77.0781H25.9746V81.3368H30.2333V77.0781Z" fill="black"/>
  <path d="M34.4911 77.0781H30.2324V81.3368H34.4911V77.0781Z" fill="black"/>
  <path d="M43.0087 77.0781H38.75V81.3368H43.0087V77.0781Z" fill="black"/>
  <path d="M106.89 77.0781H102.631V81.3368H106.89V77.0781Z" fill="black"/>
  <path d="M119.665 77.0781H115.406V81.3368H119.665V77.0781Z" fill="black"/>
  <path d="M128.183 77.0781H123.924V81.3368H128.183V77.0781Z" fill="black"/>
  <path d="M140.958 77.0781H136.699V81.3368H140.958V77.0781Z" fill="black"/>
  <path d="M149.475 77.0781H145.217V81.3368H149.475V77.0781Z" fill="black"/>
  <path d="M157.993 77.0781H153.734V81.3368H157.993V77.0781Z" fill="black"/>
  <path d="M8.93838 81.3379H4.67969V85.5966H8.93838V81.3379Z" fill="black"/>
  <path d="M13.1981 81.3379H8.93945V85.5966H13.1981V81.3379Z" fill="black"/>
  <path d="M17.456 81.3379H13.1973V85.5966H17.456V81.3379Z" fill="black"/>
  <path d="M34.4911 81.3379H30.2324V85.5966H34.4911V81.3379Z" fill="black"/>
  <path d="M38.7509 81.3379H34.4922V85.5966H38.7509V81.3379Z" fill="black"/>
  <path d="M43.0087 81.3379H38.75V85.5966H43.0087V81.3379Z" fill="black"/>
  <path d="M47.2665 81.3379H43.0078V85.5966H47.2665V81.3379Z" fill="black"/>
  <path d="M55.7841 81.3379H51.5254V85.5966H55.7841V81.3379Z" fill="black"/>
  <path d="M106.89 81.3379H102.631V85.5966H106.89V81.3379Z" fill="black"/>
  <path d="M136.7 81.3379H132.441V85.5966H136.7V81.3379Z" fill="black"/>
  <path d="M145.218 81.3379H140.959V85.5966H145.218V81.3379Z" fill="black"/>
  <path d="M157.993 81.3379H153.734V85.5966H157.993V81.3379Z" fill="black"/>
  <path d="M8.93838 85.5957H4.67969V89.8544H8.93838V85.5957Z" fill="black"/>
  <path d="M21.7157 85.5957H17.457V89.8544H21.7157V85.5957Z" fill="black"/>
  <path d="M25.9735 85.5957H21.7148V89.8544H25.9735V85.5957Z" fill="black"/>
  <path d="M30.2333 85.5957H25.9746V89.8544H30.2333V85.5957Z" fill="black"/>
  <path d="M34.4911 85.5957H30.2324V89.8544H34.4911V85.5957Z" fill="black"/>
  <path d="M47.2665 85.5957H43.0078V89.8544H47.2665V85.5957Z" fill="black"/>
  <path d="M115.407 85.5957H111.148V89.8544H115.407V85.5957Z" fill="black"/>
  <path d="M123.925 85.5957H119.666V89.8544H123.925V85.5957Z" fill="black"/>
  <path d="M128.183 85.5957H123.924V89.8544H128.183V85.5957Z" fill="black"/>
  <path d="M132.44 85.5957H128.182V89.8544H132.44V85.5957Z" fill="black"/>
  <path d="M153.735 85.5957H149.477V89.8544H153.735V85.5957Z" fill="black"/>
  <path d="M17.456 89.8535H13.1973V94.1122H17.456V89.8535Z" fill="black"/>
  <path d="M21.7157 89.8535H17.457V94.1122H21.7157V89.8535Z" fill="black"/>
  <path d="M25.9735 89.8535H21.7148V94.1122H25.9735V89.8535Z" fill="black"/>
  <path d="M38.7509 89.8535H34.4922V94.1122H38.7509V89.8535Z" fill="black"/>
  <path d="M55.7841 89.8535H51.5254V94.1122H55.7841V89.8535Z" fill="black"/>
  <path d="M106.89 89.8535H102.631V94.1122H106.89V89.8535Z" fill="black"/>
  <path d="M111.147 89.8535H106.889V94.1122H111.147V89.8535Z" fill="black"/>
  <path d="M119.665 89.8535H115.406V94.1122H119.665V89.8535Z" fill="black"/>
  <path d="M132.44 89.8535H128.182V94.1122H132.44V89.8535Z" fill="black"/>
  <path d="M136.7 89.8535H132.441V94.1122H136.7V89.8535Z" fill="black"/>
  <path d="M149.475 89.8535H145.217V94.1122H149.475V89.8535Z" fill="black"/>
  <path d="M157.993 89.8535H153.734V94.1122H157.993V89.8535Z" fill="black"/>
  <path d="M4.68057 94.1133H0.421875V98.372H4.68057V94.1133Z" fill="black"/>
  <path d="M8.93838 94.1133H4.67969V98.372H8.93838V94.1133Z" fill="black"/>
  <path d="M13.1981 94.1133H8.93945V98.372H13.1981V94.1133Z" fill="black"/>
  <path d="M17.456 94.1133H13.1973V98.372H17.456V94.1133Z" fill="black"/>
  <path d="M30.2333 94.1133H25.9746V98.372H30.2333V94.1133Z" fill="black"/>
  <path d="M38.7509 94.1133H34.4922V98.372H38.7509V94.1133Z" fill="black"/>
  <path d="M43.0087 94.1133H38.75V98.372H43.0087V94.1133Z" fill="black"/>
  <path d="M51.5263 94.1133H47.2676V98.372H51.5263V94.1133Z" fill="black"/>
  <path d="M106.89 94.1133H102.631V98.372H106.89V94.1133Z" fill="black"/>
  <path d="M115.407 94.1133H111.148V98.372H115.407V94.1133Z" fill="black"/>
  <path d="M119.665 94.1133H115.406V98.372H119.665V94.1133Z" fill="black"/>
  <path d="M123.925 94.1133H119.666V98.372H123.925V94.1133Z" fill="black"/>
  <path d="M128.183 94.1133H123.924V98.372H128.183V94.1133Z" fill="black"/>
  <path d="M136.7 94.1133H132.441V98.372H136.7V94.1133Z" fill="black"/>
  <path d="M140.958 94.1133H136.699V98.372H140.958V94.1133Z" fill="black"/>
  <path d="M149.475 94.1133H145.217V98.372H149.475V94.1133Z" fill="black"/>
  <path d="M157.993 94.1133H153.734V98.372H157.993V94.1133Z" fill="black"/>
  <path d="M8.93838 98.3711H4.67969V102.63H8.93838V98.3711Z" fill="black"/>
  <path d="M13.1981 98.3711H8.93945V102.63H13.1981V98.3711Z" fill="black"/>
  <path d="M34.4911 98.3711H30.2324V102.63H34.4911V98.3711Z" fill="black"/>
  <path d="M38.7509 98.3711H34.4922V102.63H38.7509V98.3711Z" fill="black"/>
  <path d="M43.0087 98.3711H38.75V102.63H43.0087V98.3711Z" fill="black"/>
  <path d="M47.2665 98.3711H43.0078V102.63H47.2665V98.3711Z" fill="black"/>
  <path d="M55.7841 98.3711H51.5254V102.63H55.7841V98.3711Z" fill="black"/>
  <path d="M106.89 98.3711H102.631V102.63H106.89V98.3711Z" fill="black"/>
  <path d="M115.407 98.3711H111.148V102.63H115.407V98.3711Z" fill="black"/>
  <path d="M119.665 98.3711H115.406V102.63H119.665V98.3711Z" fill="black"/>
  <path d="M136.7 98.3711H132.441V102.63H136.7V98.3711Z" fill="black"/>
  <path d="M145.218 98.3711H140.959V102.63H145.218V98.3711Z" fill="black"/>
  <path d="M153.735 98.3711H149.477V102.63H153.735V98.3711Z" fill="black"/>
  <path d="M157.993 98.3711H153.734V102.63H157.993V98.3711Z" fill="black"/>
  <path d="M30.2333 102.631H25.9746V106.89H30.2333V102.631Z" fill="black"/>
  <path d="M34.4911 102.631H30.2324V106.89H34.4911V102.631Z" fill="black"/>
  <path d="M38.7509 102.631H34.4922V106.89H38.7509V102.631Z" fill="black"/>
  <path d="M51.5263 102.631H47.2676V106.89H51.5263V102.631Z" fill="black"/>
  <path d="M55.7841 102.631H51.5254V106.89H55.7841V102.631Z" fill="black"/>
  <path d="M60.0438 102.631H55.7852V106.89H60.0438V102.631Z" fill="black"/>
  <path d="M77.079 102.631H72.8203V106.89H77.079V102.631Z" fill="black"/>
  <path d="M81.3368 102.631H77.0781V106.89H81.3368V102.631Z" fill="black"/>
  <path d="M102.63 102.631H98.3711V106.89H102.63V102.631Z" fill="black"/>
  <path d="M111.147 102.631H106.889V106.89H111.147V102.631Z" fill="black"/>
  <path d="M115.407 102.631H111.148V106.89H115.407V102.631Z" fill="black"/>
  <path d="M123.925 102.631H119.666V106.89H123.925V102.631Z" fill="black"/>
  <path d="M128.183 102.631H123.924V106.89H128.183V102.631Z" fill="black"/>
  <path d="M132.44 102.631H128.182V106.89H132.44V102.631Z" fill="black"/>
  <path d="M136.7 102.631H132.441V106.89H136.7V102.631Z" fill="black"/>
  <path d="M13.1981 106.889H8.93945V111.147H13.1981V106.889Z" fill="black"/>
  <path d="M17.456 106.889H13.1973V111.147H17.456V106.889Z" fill="black"/>
  <path d="M21.7157 106.889H17.457V111.147H21.7157V106.889Z" fill="black"/>
  <path d="M25.9735 106.889H21.7148V111.147H25.9735V106.889Z" fill="black"/>
  <path d="M34.4911 106.889H30.2324V111.147H34.4911V106.889Z" fill="black"/>
  <path d="M43.0087 106.889H38.75V111.147H43.0087V106.889Z" fill="black"/>
  <path d="M55.7841 106.889H51.5254V111.147H55.7841V106.889Z" fill="black"/>
  <path d="M64.3017 106.889H60.043V111.147H64.3017V106.889Z" fill="black"/>
  <path d="M68.5614 106.889H64.3027V111.147H68.5614V106.889Z" fill="black"/>
  <path d="M72.8192 106.889H68.5605V111.147H72.8192V106.889Z" fill="black"/>
  <path d="M77.079 106.889H72.8203V111.147H77.079V106.889Z" fill="black"/>
  <path d="M111.147 106.889H106.889V111.147H111.147V106.889Z" fill="black"/>
  <path d="M119.665 106.889H115.406V111.147H119.665V106.889Z" fill="black"/>
  <path d="M123.925 106.889H119.666V111.147H123.925V106.889Z" fill="black"/>
  <path d="M132.44 106.889H128.182V111.147H132.44V106.889Z" fill="black"/>
  <path d="M136.7 106.889H132.441V111.147H136.7V106.889Z" fill="black"/>
  <path d="M149.475 106.889H145.217V111.147H149.475V106.889Z" fill="black"/>
  <path d="M157.993 106.889H153.734V111.147H157.993V106.889Z" fill="black"/>
  <path d="M4.68057 111.148H0.421875V115.407H4.68057V111.148Z" fill="black"/>
  <path d="M8.93838 111.148H4.67969V115.407H8.93838V111.148Z" fill="black"/>
  <path d="M21.7157 111.148H17.457V115.407H21.7157V111.148Z" fill="black"/>
  <path d="M25.9735 111.148H21.7148V115.407H25.9735V111.148Z" fill="black"/>
  <path d="M30.2333 111.148H25.9746V115.407H30.2333V111.148Z" fill="black"/>
  <path d="M34.4911 111.148H30.2324V115.407H34.4911V111.148Z" fill="black"/>
  <path d="M38.7509 111.148H34.4922V115.407H38.7509V111.148Z" fill="black"/>
  <path d="M43.0087 111.148H38.75V115.407H43.0087V111.148Z" fill="black"/>
  <path d="M47.2665 111.148H43.0078V115.407H47.2665V111.148Z" fill="black"/>
  <path d="M51.5263 111.148H47.2676V115.407H51.5263V111.148Z" fill="black"/>
  <path d="M60.0438 111.148H55.7852V115.407H60.0438V111.148Z" fill="black"/>
  <path d="M64.3017 111.148H60.043V115.407H64.3017V111.148Z" fill="black"/>
  <path d="M68.5614 111.148H64.3027V115.407H68.5614V111.148Z" fill="black"/>
  <path d="M72.8192 111.148H68.5605V115.407H72.8192V111.148Z" fill="black"/>
  <path d="M98.372 111.148H94.1133V115.407H98.372V111.148Z" fill="black"/>
  <path d="M102.63 111.148H98.3711V115.407H102.63V111.148Z" fill="black"/>
  <path d="M119.665 111.148H115.406V115.407H119.665V111.148Z" fill="black"/>
  <path d="M123.925 111.148H119.666V115.407H123.925V111.148Z" fill="black"/>
  <path d="M128.183 111.148H123.924V115.407H128.183V111.148Z" fill="black"/>
  <path d="M132.44 111.148H128.182V115.407H132.44V111.148Z" fill="black"/>
  <path d="M136.7 111.148H132.441V115.407H136.7V111.148Z" fill="black"/>
  <path d="M140.958 111.148H136.699V115.407H140.958V111.148Z" fill="black"/>
  <path d="M149.475 111.148H145.217V115.407H149.475V111.148Z" fill="black"/>
  <path d="M157.993 111.148H153.734V115.407H157.993V111.148Z" fill="black"/>
  <path d="M21.7157 115.406H17.457V119.665H21.7157V115.406Z" fill="black"/>
  <path d="M25.9735 115.406H21.7148V119.665H25.9735V115.406Z" fill="black"/>
  <path d="M34.4911 115.406H30.2324V119.665H34.4911V115.406Z" fill="black"/>
  <path d="M47.2665 115.406H43.0078V119.665H47.2665V115.406Z" fill="black"/>
  <path d="M51.5263 115.406H47.2676V119.665H51.5263V115.406Z" fill="black"/>
  <path d="M55.7841 115.406H51.5254V119.665H55.7841V115.406Z" fill="black"/>
  <path d="M64.3017 115.406H60.043V119.665H64.3017V115.406Z" fill="black"/>
  <path d="M68.5614 115.406H64.3027V119.665H68.5614V115.406Z" fill="black"/>
  <path d="M72.8192 115.406H68.5605V119.665H72.8192V115.406Z" fill="black"/>
  <path d="M77.079 115.406H72.8203V119.665H77.079V115.406Z" fill="black"/>
  <path d="M89.8544 115.406H85.5957V119.665H89.8544V115.406Z" fill="black"/>
  <path d="M94.1122 115.406H89.8535V119.665H94.1122V115.406Z" fill="black"/>
  <path d="M119.665 115.406H115.406V119.665H119.665V115.406Z" fill="black"/>
  <path d="M123.925 115.406H119.666V119.665H123.925V115.406Z" fill="black"/>
  <path d="M128.183 115.406H123.924V119.665H128.183V115.406Z" fill="black"/>
  <path d="M132.44 115.406H128.182V119.665H132.44V115.406Z" fill="black"/>
  <path d="M136.7 115.406H132.441V119.665H136.7V115.406Z" fill="black"/>
  <path d="M145.218 115.406H140.959V119.665H145.218V115.406Z" fill="black"/>
  <path d="M153.735 115.406H149.477V119.665H153.735V115.406Z" fill="black"/>
  <path d="M157.993 115.406H153.734V119.665H157.993V115.406Z" fill="black"/>
  <path d="M4.68057 119.666H0.421875V123.925H4.68057V119.666Z" fill="black"/>
  <path d="M8.93838 119.666H4.67969V123.925H8.93838V119.666Z" fill="black"/>
  <path d="M17.456 119.666H13.1973V123.925H17.456V119.666Z" fill="black"/>
  <path d="M21.7157 119.666H17.457V123.925H21.7157V119.666Z" fill="black"/>
  <path d="M25.9735 119.666H21.7148V123.925H25.9735V119.666Z" fill="black"/>
  <path d="M30.2333 119.666H25.9746V123.925H30.2333V119.666Z" fill="black"/>
  <path d="M38.7509 119.666H34.4922V123.925H38.7509V119.666Z" fill="black"/>
  <path d="M43.0087 119.666H38.75V123.925H43.0087V119.666Z" fill="black"/>
  <path d="M47.2665 119.666H43.0078V123.925H47.2665V119.666Z" fill="black"/>
  <path d="M51.5263 119.666H47.2676V123.925H51.5263V119.666Z" fill="black"/>
  <path d="M55.7841 119.666H51.5254V123.925H55.7841V119.666Z" fill="black"/>
  <path d="M81.3368 119.666H77.0781V123.925H81.3368V119.666Z" fill="black"/>
  <path d="M85.5966 119.666H81.3379V123.925H85.5966V119.666Z" fill="black"/>
  <path d="M94.1122 119.666H89.8535V123.925H94.1122V119.666Z" fill="black"/>
  <path d="M102.63 119.666H98.3711V123.925H102.63V119.666Z" fill="black"/>
  <path d="M106.89 119.666H102.631V123.925H106.89V119.666Z" fill="black"/>
  <path d="M123.925 119.666H119.666V123.925H123.925V119.666Z" fill="black"/>
  <path d="M128.183 119.666H123.924V123.925H128.183V119.666Z" fill="black"/>
  <path d="M132.44 119.666H128.182V123.925H132.44V119.666Z" fill="black"/>
  <path d="M136.7 119.666H132.441V123.925H136.7V119.666Z" fill="black"/>
  <path d="M140.958 119.666H136.699V123.925H140.958V119.666Z" fill="black"/>
  <path d="M38.7509 123.924H34.4922V128.183H38.7509V123.924Z" fill="black"/>
  <path d="M43.0087 123.924H38.75V128.183H43.0087V123.924Z" fill="black"/>
  <path d="M51.5263 123.924H47.2676V128.183H51.5263V123.924Z" fill="black"/>
  <path d="M60.0438 123.924H55.7852V128.183H60.0438V123.924Z" fill="black"/>
  <path d="M64.3017 123.924H60.043V128.183H64.3017V123.924Z" fill="black"/>
  <path d="M72.8192 123.924H68.5605V128.183H72.8192V123.924Z" fill="black"/>
  <path d="M77.079 123.924H72.8203V128.183H77.079V123.924Z" fill="black"/>
  <path d="M85.5966 123.924H81.3379V128.183H85.5966V123.924Z" fill="black"/>
  <path d="M94.1122 123.924H89.8535V128.183H94.1122V123.924Z" fill="black"/>
  <path d="M102.63 123.924H98.3711V128.183H102.63V123.924Z" fill="black"/>
  <path d="M106.89 123.924H102.631V128.183H106.89V123.924Z" fill="black"/>
  <path d="M111.147 123.924H106.889V128.183H111.147V123.924Z" fill="black"/>
  <path d="M123.925 123.924H119.666V128.183H123.925V123.924Z" fill="black"/>
  <path d="M140.958 123.924H136.699V128.183H140.958V123.924Z" fill="black"/>
  <path d="M145.218 123.924H140.959V128.183H145.218V123.924Z" fill="black"/>
  <path d="M157.993 123.924H153.734V128.183H157.993V123.924Z" fill="black"/>
  <path d="M38.7509 128.182H34.4922V132.44H38.7509V128.182Z" fill="black"/>
  <path d="M47.2665 128.182H43.0078V132.44H47.2665V128.182Z" fill="black"/>
  <path d="M60.0438 128.182H55.7852V132.44H60.0438V128.182Z" fill="black"/>
  <path d="M72.8192 128.182H68.5605V132.44H72.8192V128.182Z" fill="black"/>
  <path d="M77.079 128.182H72.8203V132.44H77.079V128.182Z" fill="black"/>
  <path d="M94.1122 128.182H89.8535V132.44H94.1122V128.182Z" fill="black"/>
  <path d="M102.63 128.182H98.3711V132.44H102.63V128.182Z" fill="black"/>
  <path d="M106.89 128.182H102.631V132.44H106.89V128.182Z" fill="black"/>
  <path d="M123.925 128.182H119.666V132.44H123.925V128.182Z" fill="black"/>
  <path d="M132.44 128.182H128.182V132.44H132.44V128.182Z" fill="black"/>
  <path d="M140.958 128.182H136.699V132.44H140.958V128.182Z" fill="black"/>
  <path d="M145.218 128.182H140.959V132.44H145.218V128.182Z" fill="black"/>
  <path d="M149.475 128.182H145.217V132.44H149.475V128.182Z" fill="black"/>
  <path d="M157.993 128.182H153.734V132.44H157.993V128.182Z" fill="black"/>
  <path d="M38.7509 132.441H34.4922V136.7H38.7509V132.441Z" fill="black"/>
  <path d="M85.5966 132.441H81.3379V136.7H85.5966V132.441Z" fill="black"/>
  <path d="M94.1122 132.441H89.8535V136.7H94.1122V132.441Z" fill="black"/>
  <path d="M102.63 132.441H98.3711V136.7H102.63V132.441Z" fill="black"/>
  <path d="M106.89 132.441H102.631V136.7H106.89V132.441Z" fill="black"/>
  <path d="M119.665 132.441H115.406V136.7H119.665V132.441Z" fill="black"/>
  <path d="M123.925 132.441H119.666V136.7H123.925V132.441Z" fill="black"/>
  <path d="M140.958 132.441H136.699V136.7H140.958V132.441Z" fill="black"/>
  <path d="M145.218 132.441H140.959V136.7H145.218V132.441Z" fill="black"/>
  <path d="M153.735 132.441H149.477V136.7H153.735V132.441Z" fill="black"/>
  <path d="M157.993 132.441H153.734V136.7H157.993V132.441Z" fill="black"/>
  <path d="M55.7841 136.699H51.5254V140.958H55.7841V136.699Z" fill="black"/>
  <path d="M64.3017 136.699H60.043V140.958H64.3017V136.699Z" fill="black"/>
  <path d="M81.3368 136.699H77.0781V140.958H81.3368V136.699Z" fill="black"/>
  <path d="M89.8544 136.699H85.5957V140.958H89.8544V136.699Z" fill="black"/>
  <path d="M106.89 136.699H102.631V140.958H106.89V136.699Z" fill="black"/>
  <path d="M119.665 136.699H115.406V140.958H119.665V136.699Z" fill="black"/>
  <path d="M123.925 136.699H119.666V140.958H123.925V136.699Z" fill="black"/>
  <path d="M128.183 136.699H123.924V140.958H128.183V136.699Z" fill="black"/>
  <path d="M132.44 136.699H128.182V140.958H132.44V136.699Z" fill="black"/>
  <path d="M136.7 136.699H132.441V140.958H136.7V136.699Z" fill="black"/>
  <path d="M140.958 136.699H136.699V140.958H140.958V136.699Z" fill="black"/>
  <path d="M47.2665 140.959H43.0078V145.218H47.2665V140.959Z" fill="black"/>
  <path d="M51.5263 140.959H47.2676V145.218H51.5263V140.959Z" fill="black"/>
  <path d="M55.7841 140.959H51.5254V145.218H55.7841V140.959Z" fill="black"/>
  <path d="M60.0438 140.959H55.7852V145.218H60.0438V140.959Z" fill="black"/>
  <path d="M68.5614 140.959H64.3027V145.218H68.5614V140.959Z" fill="black"/>
  <path d="M77.079 140.959H72.8203V145.218H77.079V140.959Z" fill="black"/>
  <path d="M81.3368 140.959H77.0781V145.218H81.3368V140.959Z" fill="black"/>
  <path d="M85.5966 140.959H81.3379V145.218H85.5966V140.959Z" fill="black"/>
  <path d="M89.8544 140.959H85.5957V145.218H89.8544V140.959Z" fill="black"/>
  <path d="M94.1122 140.959H89.8535V145.218H94.1122V140.959Z" fill="black"/>
  <path d="M106.89 140.959H102.631V145.218H106.89V140.959Z" fill="black"/>
  <path d="M111.147 140.959H106.889V145.218H111.147V140.959Z" fill="black"/>
  <path d="M119.665 140.959H115.406V145.218H119.665V140.959Z" fill="black"/>
  <path d="M140.958 140.959H136.699V145.218H140.958V140.959Z" fill="black"/>
  <path d="M145.218 140.959H140.959V145.218H145.218V140.959Z" fill="black"/>
  <path d="M157.993 140.959H153.734V145.218H157.993V140.959Z" fill="black"/>
  <path d="M38.7509 145.217H34.4922V149.475H38.7509V145.217Z" fill="black"/>
  <path d="M43.0087 145.217H38.75V149.475H43.0087V145.217Z" fill="black"/>
  <path d="M51.5263 145.217H47.2676V149.475H51.5263V145.217Z" fill="black"/>
  <path d="M64.3017 145.217H60.043V149.475H64.3017V145.217Z" fill="black"/>
  <path d="M77.079 145.217H72.8203V149.475H77.079V145.217Z" fill="black"/>
  <path d="M81.3368 145.217H77.0781V149.475H81.3368V145.217Z" fill="black"/>
  <path d="M89.8544 145.217H85.5957V149.475H89.8544V145.217Z" fill="black"/>
  <path d="M94.1122 145.217H89.8535V149.475H94.1122V145.217Z" fill="black"/>
  <path d="M98.372 145.217H94.1133V149.475H98.372V145.217Z" fill="black"/>
  <path d="M106.89 145.217H102.631V149.475H106.89V145.217Z" fill="black"/>
  <path d="M140.958 145.217H136.699V149.475H140.958V145.217Z" fill="black"/>
  <path d="M145.218 145.217H140.959V149.475H145.218V145.217Z" fill="black"/>
  <path d="M149.475 145.217H145.217V149.475H149.475V145.217Z" fill="black"/>
  <path d="M153.735 145.217H149.477V149.475H153.735V145.217Z" fill="black"/>
  <path d="M157.993 145.217H153.734V149.475H157.993V145.217Z" fill="black"/>
  <path d="M60.0438 149.477H55.7852V153.735H60.0438V149.477Z" fill="black"/>
  <path d="M68.5614 149.477H64.3027V153.735H68.5614V149.477Z" fill="black"/>
  <path d="M72.8192 149.477H68.5605V153.735H72.8192V149.477Z" fill="black"/>
  <path d="M85.5966 149.477H81.3379V153.735H85.5966V149.477Z" fill="black"/>
  <path d="M89.8544 149.477H85.5957V153.735H89.8544V149.477Z" fill="black"/>
  <path d="M102.63 149.477H98.3711V153.735H102.63V149.477Z" fill="black"/>
  <path d="M106.89 149.477H102.631V153.735H106.89V149.477Z" fill="black"/>
  <path d="M115.407 149.477H111.148V153.735H115.407V149.477Z" fill="black"/>
  <path d="M123.925 149.477H119.666V153.735H123.925V149.477Z" fill="black"/>
  <path d="M128.183 149.477H123.924V153.735H128.183V149.477Z" fill="black"/>
  <path d="M132.44 149.477H128.182V153.735H132.44V149.477Z" fill="black"/>
  <path d="M145.218 149.477H140.959V153.735H145.218V149.477Z" fill="black"/>
  <path d="M51.5263 153.734H47.2676V157.993H51.5263V153.734Z" fill="black"/>
  <path d="M60.0438 153.734H55.7852V157.993H60.0438V153.734Z" fill="black"/>
  <path d="M64.3017 153.734H60.043V157.993H64.3017V153.734Z" fill="black"/>
  <path d="M68.5614 153.734H64.3027V157.993H68.5614V153.734Z" fill="black"/>
  <path d="M72.8192 153.734H68.5605V157.993H72.8192V153.734Z" fill="black"/>
  <path d="M77.079 153.734H72.8203V157.993H77.079V153.734Z" fill="black"/>
  <path d="M85.5966 153.734H81.3379V157.993H85.5966V153.734Z" fill="black"/>
  <path d="M106.89 153.734H102.631V157.993H106.89V153.734Z" fill="black"/>
  <path d="M123.925 153.734H119.666V157.993H123.925V153.734Z" fill="black"/>
  <path d="M128.183 153.734H123.924V157.993H128.183V153.734Z" fill="black"/>
  <path d="M145.218 153.734H140.959V157.993H145.218V153.734Z" fill="black"/>
  <path d="M157.993 153.734H153.734V157.993H157.993V153.734Z" fill="black"/>
  <path d="M15.328 0.714844C7.25774 0.714844 0.714844 7.25774 0.714844 15.328C0.714844 23.3983 7.25774 29.9412 15.328 29.9412C23.3983 29.9412 29.9412 23.3983 29.9412 15.328C29.9412 7.25774 23.3983 0.714844 15.328 0.714844ZM15.328 25.5572C9.68761 25.5572 5.09879 20.9684 5.09879 15.328C5.09879 9.68761 9.68761 5.09879 15.328 5.09879C20.9684 5.09879 25.5572 9.68761 25.5572 15.328C25.5572 20.9684 20.9684 25.5572 15.328 25.5572Z" fill="black"/>
  <path d="M143.088 0.714844C135.018 0.714844 128.475 7.25774 128.475 15.328C128.475 23.3983 135.018 29.9412 143.088 29.9412C151.158 29.9412 157.701 23.3983 157.701 15.328C157.701 7.25774 151.158 0.714844 143.088 0.714844ZM143.088 25.5572C137.447 25.5572 132.859 20.9684 132.859 15.328C132.859 9.68761 137.447 5.09879 143.088 5.09879C148.728 5.09879 153.317 9.68761 153.317 15.328C153.317 20.9684 148.728 25.5572 143.088 25.5572Z" fill="black"/>
  <path d="M15.328 128.475C7.25774 128.475 0.714844 135.018 0.714844 143.088C0.714844 151.158 7.25774 157.701 15.328 157.701C23.3983 157.701 29.9412 151.158 29.9412 143.088C29.9412 135.018 23.3983 128.475 15.328 128.475ZM15.328 153.317C9.68761 153.317 5.09879 148.728 5.09879 143.088C5.09879 137.447 9.68761 132.859 15.328 132.859C20.9684 132.859 25.5572 137.447 25.5572 143.088C25.5572 148.728 20.9684 153.317 15.328 153.317Z" fill="black"/>
  <path d="M15.2022 21.465C18.6611 21.465 21.465 18.6611 21.465 15.2022C21.465 11.7434 18.6611 8.93945 15.2022 8.93945C11.7434 8.93945 8.93945 11.7434 8.93945 15.2022C8.93945 18.6611 11.7434 21.465 15.2022 21.465Z" fill="black"/>
  <path d="M142.962 21.465C146.421 21.465 149.225 18.6611 149.225 15.2022C149.225 11.7434 146.421 8.93945 142.962 8.93945C139.503 8.93945 136.699 11.7434 136.699 15.2022C136.699 18.6611 139.503 21.465 142.962 21.465Z" fill="black"/>
  <path d="M15.2022 149.225C18.6611 149.225 21.465 146.421 21.465 142.962C21.465 139.503 18.6611 136.699 15.2022 136.699C11.7434 136.699 8.93945 139.503 8.93945 142.962C8.93945 146.421 11.7434 149.225 15.2022 149.225Z" fill="black"/>
  <defs>
    <clipPath id="clip0_9382_684">
      <rect width="30" height="28.5484" fill="white" transform="translate(64 65)"/>
    </clipPath>
  </defs>
</svg>
