<svg width="30" height="40" viewBox="0 0 30 40" fill="none" xmlns="http://www.w3.org/2000/svg">
<g id="Logo">
<path d="M20.7446 17.3869C22.4561 18.9284 23.6107 20.9927 24.029 23.2588C24.4473 25.5249 24.1058 27.8658 23.0576 29.9176C28.6237 20.6129 26.5196 13.2946 26.5196 13.2946C14.4324 7.23092 7.64268 12.3985 7.64268 12.3985C12.476 12.383 17.1436 14.1602 20.7446 17.3869Z" fill="white"/>
<path d="M7.03429 19.3886C8.55707 17.6659 10.6131 16.501 12.8754 16.0791C15.1377 15.6572 17.4764 16.0025 19.5196 17.0601C10.2491 11.4627 2.96723 13.5673 2.96723 13.5673C-3.01374 25.7322 2.07009 32.5535 2.07009 32.5535C2.04994 27.7057 3.81686 23.0198 7.03429 19.3886Z" fill="white"/>
<path d="M9.19127 32.9441C7.47909 31.4054 6.32264 29.3447 5.90133 27.0817C5.48001 24.8188 5.8174 22.48 6.86114 20.4283C1.3196 29.7181 3.41075 37.0513 3.41075 37.0513C15.5095 43.115 22.2908 37.9474 22.2908 37.9474C17.4556 37.958 12.7881 36.1753 9.19127 32.9441Z" fill="white"/>
<path d="M27.9058 17.7265C27.9246 22.5791 26.1543 27.2683 22.9334 30.8976C21.4151 32.6199 19.3645 33.7847 17.1078 34.2069C14.8511 34.629 12.518 34.2842 10.4799 33.2272C19.723 38.8272 27.0099 36.7067 27.0099 36.7067C33.0425 24.551 27.9058 17.7265 27.9058 17.7265Z" fill="white"/>
<path d="M23.6105 0C14.9418 0.164489 14.3729 7.73098 14.3729 7.73098C23.0865 8.4637 23.6105 0 23.6105 0Z" fill="white"/>
</g>
</svg>
