<svg width="30" height="40" viewBox="0 0 30 40" fill="none" xmlns="http://www.w3.org/2000/svg">
<g id="Logo">
<path d="M20.766 17.3869C22.4837 18.9284 23.6426 20.9927 24.0624 23.2588C24.4823 25.5249 24.1395 27.8658 23.0875 29.9176C28.674 20.6129 26.5622 13.2946 26.5622 13.2946C14.4306 7.23092 7.61589 12.3985 7.61589 12.3985C12.4669 12.383 17.1518 14.1602 20.766 17.3869Z" fill="#141619"/>
<path d="M7.00526 19.3886C8.53364 17.6659 10.5972 16.501 12.8679 16.0791C15.1385 15.6572 17.4858 16.0025 19.5364 17.0601C10.2318 11.4627 2.92325 13.5673 2.92325 13.5673C-3.07971 25.7322 2.02281 32.5535 2.02281 32.5535C2.00258 27.7057 3.776 23.0198 7.00526 19.3886Z" fill="#141619"/>
<path d="M9.17017 32.9441C7.4517 31.4054 6.29099 29.3447 5.86813 27.0817C5.44527 24.8188 5.7839 22.48 6.83148 20.4283C1.26956 29.7181 3.3684 37.0513 3.3684 37.0513C15.5117 43.115 22.3179 37.9474 22.3179 37.9474C17.4648 37.958 12.7803 36.1753 9.17017 32.9441Z" fill="#141619"/>
<path d="M27.9535 17.7265C27.9724 22.5791 26.1956 27.2683 22.9628 30.8976C21.439 32.6199 19.3808 33.7847 17.1158 34.2069C14.8508 34.629 12.5092 34.2842 10.4636 33.2272C19.7406 38.8272 27.0543 36.7067 27.0543 36.7067C33.1091 24.551 27.9535 17.7265 27.9535 17.7265Z" fill="#141619"/>
<path d="M23.6424 0C14.9419 0.164489 14.3709 7.73098 14.3709 7.73098C23.1165 8.4637 23.6424 0 23.6424 0Z" fill="#141619"/>
</g>
</svg>
