<svg xmlns="http://www.w3.org/2000/svg" width="128" height="128"><circle cx="64.1" cy="64.1" r="64" fill-rule="evenodd" clip-rule="evenodd"/><g fill="#fff"><path d="M84.2 72.9c.3 2.1.9 3.6 1.7 4.7 1.5 1.9 4.2 2.8 7.9 2.8 2.2 0 4.1-.2 5.5-.7 2.7-.9 4-2.7 4-5.3 0-1.5-.7-2.7-2-3.5-1.3-.8-3.4-1.5-6.2-2.1l-4.8-1.1c-4.7-1.1-8-2.2-9.8-3.5-3.1-2.1-4.6-5.4-4.6-9.9 0-4.1 1.5-7.5 4.5-10.2 3-2.7 7.3-4.1 13.1-4.1 4.8 0 8.9 1.3 12.3 3.8 3.4 2.5 5.2 6.2 5.3 11.1h-9.2c-.2-2.7-1.4-4.7-3.6-5.8-1.5-.8-3.3-1.1-5.5-1.1-2.5 0-4.4.5-5.9 1.5s-2.2 2.4-2.2 4.1c0 1.6.7 2.8 2.2 3.7.9.5 2.9 1.2 5.9 1.9l7.9 1.9c3.4.8 6 1.9 7.8 3.3 2.7 2.1 4.1 5.2 4.1 9.3 0 4.2-1.6 7.6-4.8 10.4s-7.7 4.1-13.5 4.1c-5.9 0-10.6-1.4-14-4.1-3.4-2.7-5.1-6.4-5.1-11.2h9z"/><path d="M28.1 26.1v76h66v-7h-58v-62h58v-7h-66z" fill-rule="evenodd" clip-rule="evenodd"/></g></svg>