<svg version="1.1" id="Layer_1" xmlns="http://www.w3.org/2000/svg" x="0" y="0" width="128" height="128" xml:space="preserve"><style>.st1{fill:#fff}</style><path d="M64 128.1c35.3 0 64-28.7 64-64S99.3.1 64 .1a64 64 0 1 0 0 128z" fill="#20252f"/><path class="st1" d="M104.6 39.5H91l-6.3 20.4h13.4l6.5-20.4zM80.2 74.7l-6.7-15.8c-.7-2-2.1-3.6-3.8-4.8s-3.8-1.8-5.8-1.8c-2.1 0-4.1.6-5.8 1.8-1.7 1.2-3 2.8-3.8 4.7l-7 15.9-10.5-35.2H23.4l15.9 51.6a4.6 4.6 0 0 0 4.4 3.3h7.7c.9 0 1.8-.3 2.6-.8s1.4-1.3 1.7-2.1l8.2-20.2 8.4 20.3c.3.9.9 1.6 1.7 2.1.8.5 1.7.8 2.6.8h7.6c1 0 1.9-.3 2.7-.9.8-.6 1.4-1.4 1.7-2.3l7.5-24.5H82.8l-2.6 7.9z"/></svg>