<svg width="26" height="26" viewBox="0 0 26 26" fill="none" xmlns="http://www.w3.org/2000/svg">
<path fill-rule="evenodd" clip-rule="evenodd" d="M3.03134 26H22.969C24.6432 26 26.0003 24.6429 26 22.9684V3.03131C26 1.3571 24.6429 0 22.9687 0H3.03134C1.35712 0 0 1.3571 0 3.03131V22.9687C0 24.6429 1.35712 26 3.03134 26ZM10.9604 13.8441L3.89641 4.81481H9.34078L13.9718 10.7341L19.7033 4.81481H21.3032L14.6866 11.6481L22.1482 21.1852H16.7038L11.6755 14.7578L5.45186 21.1852H3.85189L10.9604 13.8441ZM8.75035 5.94161H6.24923L17.2939 20.0587H19.7951L8.75035 5.94161Z" fill="white"/>
</svg>
